<?xml version="1.0" ?><svg data-name="Layer 1" id="Layer_1" viewBox="0 0 64 64" xmlns="http://www.w3.org/2000/svg"><defs><style>.cls-1{fill:#ffb300;}.cls-2{fill:#0074ff;}</style></defs><title/><path class="cls-1" d="M44.36,27.08h-20a2,2,0,0,1,0-4h20a2,2,0,0,1,0,4Z"/><path class="cls-1" d="M16.59,58.23a5.69,5.69,0,1,1,5.69-5.69A5.69,5.69,0,0,1,16.59,58.23Zm0-7.37a1.69,1.69,0,0,0,0,3.37,1.69,1.69,0,1,0,0-3.37Z"/><path class="cls-1" d="M37.32,58.23A5.69,5.69,0,1,1,43,52.54,5.69,5.69,0,0,1,37.32,58.23Zm0-7.37a1.69,1.69,0,0,0,0,3.37,1.69,1.69,0,1,0,0-3.37Z"/><path class="cls-2" d="M45.21,43.87H11.5a2,2,0,0,1-2-1.67l-.67-4a2,2,0,1,1,3.94-.66l.39,2.32H43.28l.86-25.09H9.25l1.83,11.6A2,2,0,0,1,7.13,27L4.94,13.09a2,2,0,0,1,2-2.31h39.3a2,2,0,0,1,2,2.07l-1,29.08A2,2,0,0,1,45.21,43.87Z"/><path class="cls-2" d="M46.21,14.78a2,2,0,0,1-1.41-.58,2,2,0,0,1,0-2.83l5-5a2,2,0,0,1,1.41-.59h5.87a2,2,0,0,1,0,4h-5L47.63,14.2A2,2,0,0,1,46.21,14.78Z"/></svg>