<?xml version="1.0" encoding="utf-8"?>
<!-- Generator: Adobe Illustrator 22.0.1, SVG Export Plug-In . SVG Version: 6.00 Build 0)  -->
<svg version="1.1" id="Layer_1" xmlns="http://www.w3.org/2000/svg" xmlns:xlink="http://www.w3.org/1999/xlink" x="0px" y="0px"
	 viewBox="0 0 512 512" style="enable-background:new 0 0 512 512;" xml:space="preserve">
<style type="text/css">
	.st0{fill:#EDF3FC;}
	.st1{fill:#330D84;}
	.st2{fill:#FFBE1B;}
	.st3{fill:#5D8EF9;}
	.st4{fill:#FFE37B;}
	.st5{fill:#8AC9F9;}
	.st6{fill:#6857E5;}
	.st7{fill:#FFFFFF;}
	.st8{fill:#D5EBF7;}
	.st9{fill:#5932AE;}
	.st10{fill:#CECAFF;}
	.st11{fill:#FFCA45;}
	.st12{fill:#FFD45C;}
	.st13{fill:#8C7BFD;}
	.st14{fill:#6DC5F2;}
	.st15{fill:#3B2296;}
	.st16{fill:#EFAB11;}
</style>
<g>
	<g>
		<g>
			<path class="st0" d="M256.004,40.928c-118.781,0-215.07,96.293-215.07,215.074c0,118.776,96.289,215.067,215.07,215.067
				c118.773,0,215.066-96.292,215.066-215.067C471.07,137.222,374.777,40.928,256.004,40.928z"/>
		</g>
	</g>
	<g>
		<g>
			<path class="st0" d="M256.004,1C115.394,1,1,115.394,1,256.002C1,396.61,115.394,511,256.004,511
				C396.611,511,511,396.61,511,256.002C511,115.394,396.611,1,256.004,1z M256.004,502.832
				c-136.104,0-246.831-110.728-246.831-246.83C9.173,119.897,119.899,9.17,256.004,9.17c136.102,0,246.824,110.727,246.824,246.832
				C502.828,392.104,392.105,502.832,256.004,502.832z"/>
		</g>
	</g>
	<g>
		<g>
			<path class="st2" d="M212.022,126.99c-10.687-2.676-19.027-11.019-21.704-21.703l-0.459-1.822l-0.457,1.822
				c-2.677,10.684-11.02,19.027-21.709,21.703l-1.819,0.459l1.819,0.457c10.689,2.676,19.032,11.019,21.709,21.705l0.457,1.822
				l0.459-1.822c2.677-10.686,11.017-19.029,21.704-21.705l1.825-0.457L212.022,126.99z"/>
		</g>
	</g>
	<g>
		<g>
			<path class="st1" d="M372.238,382.877c-14.919-3.739-26.563-15.387-30.3-30.3l-0.642-2.543l-0.639,2.543
				c-3.737,14.913-15.384,26.562-30.307,30.3l-2.539,0.637l2.539,0.639c14.923,3.738,26.57,15.384,30.307,30.305l0.639,2.544
				l0.642-2.544c3.737-14.921,15.38-26.567,30.3-30.305l2.548-0.639L372.238,382.877z"/>
		</g>
	</g>
	<g>
		<g>
			<path class="st3" d="M240.891,379.07c-10.465-2.622-18.631-10.792-21.253-21.253l-0.45-1.783l-0.448,1.783
				c-2.621,10.461-10.79,18.631-21.258,21.253l-1.781,0.448l1.781,0.447c10.467,2.623,18.637,10.792,21.258,21.256l0.448,1.786
				l0.45-1.786c2.622-10.464,10.788-18.633,21.253-21.256l1.787-0.447L240.891,379.07z"/>
		</g>
	</g>
	<g>
		<g>
			<path class="st2" d="M164.807,146.601c-6.258-1.568-11.141-6.453-12.708-12.707l-0.269-1.066l-0.268,1.066
				c-1.567,6.254-6.452,11.139-12.71,12.707l-1.065,0.268l1.065,0.268c6.258,1.566,11.143,6.453,12.71,12.711l0.268,1.064
				l0.269-1.064c1.567-6.258,6.45-11.145,12.708-12.711l1.068-0.268L164.807,146.601z"/>
		</g>
	</g>
	<g>
		<g>
			<path class="st5" d="M404.776,167.667c-2.331-13.676-15.354-22.907-29.033-20.577l-127.127,21.663h143.72
				c0.545,0,1.085,0.023,1.622,0.058c0.145,0.01,0.289,0.021,0.433,0.033c0.442,0.037,0.88,0.083,1.315,0.142
				c0.099,0.013,0.199,0.023,0.297,0.038c0.533,0.078,1.06,0.173,1.582,0.285c0.081,0.018,0.16,0.038,0.24,0.056
				c0.459,0.102,0.913,0.218,1.363,0.346c0.092,0.026,0.184,0.051,0.275,0.079c1.049,0.311,2.069,0.688,3.057,1.126
				c0.052,0.024,0.104,0.047,0.156,0.071c1.014,0.459,1.993,0.981,2.931,1.565L404.776,167.667z"/>
		</g>
	</g>
	<g>
		<g>
			<path class="st5" d="M86.366,221.925l8.134,47.734v-70.793C88.215,204.449,84.853,213.048,86.366,221.925z"/>
		</g>
	</g>
	<g>
		<g>
			<path class="st5" d="M425.634,290.071l-8.134-47.733v70.794C423.785,307.55,427.147,298.951,425.634,290.071z"/>
		</g>
	</g>
	<g>
		<g>
			<path class="st5" d="M119.663,343.247c-4.868,0-9.415-1.394-13.271-3.798l0.831,4.88c2.331,13.68,15.354,22.911,29.033,20.581
				l127.121-21.663H119.663z"/>
		</g>
	</g>
	<g>
		<g>
			<path class="st6" d="M360.145,184.753h-208.29c-3.411,21.205-20.15,37.943-41.355,41.354v59.783
				c21.205,3.41,37.944,20.151,41.355,41.356h208.29c3.411-21.205,20.15-37.946,41.355-41.356v-59.783
				C380.295,222.697,363.556,205.958,360.145,184.753z"/>
		</g>
	</g>
	<g>
		<g>
			<path class="st1" d="M392.337,168.753H119.663c-13.875,0-25.163,11.287-25.163,25.162v124.167
				c0,13.875,11.288,25.164,25.163,25.164h272.674c13.875,0,25.163-11.289,25.163-25.164V193.915
				C417.5,180.04,406.212,168.753,392.337,168.753z M401.5,285.891c-21.205,3.41-37.944,20.151-41.355,41.356h-208.29
				c-3.411-21.205-20.15-37.946-41.355-41.356v-59.783c21.205-3.411,37.944-20.149,41.355-41.354h208.29
				c3.411,21.205,20.15,37.943,41.355,41.354V285.891z"/>
		</g>
	</g>
	<g>
		<g>
			<path class="st2" d="M255.999,195.701c-33.301,0-60.297,26.994-60.297,60.299c0,33.301,26.996,60.298,60.297,60.298
				c33.303,0,60.299-26.997,60.299-60.298C316.298,222.695,289.302,195.701,255.999,195.701z"/>
		</g>
	</g>
	<g>
		<g>
			<path class="st4" d="M255.999,210.74c-24.998,0-45.264,20.263-45.264,45.26c0,24.998,20.266,45.264,45.264,45.264
				c24.997,0,45.263-20.266,45.263-45.264C301.262,231.002,280.996,210.74,255.999,210.74z"/>
		</g>
	</g>
	<g>
		<g>
			<path class="st7" d="M274.248,258.824c-1.612-1.863-3.779-3.09-6.502-3.676c0.754-0.334,1.278-0.572,1.57-0.723
				c0.294-0.145,0.818-0.512,1.573-1.1c2.219-1.674,3.328-4.23,3.328-7.662c0-2.85-0.983-5.4-2.953-7.662
				c-1.087-1.215-2.711-2.178-4.868-2.893c-0.643-0.211-1.337-0.383-2.054-0.531v-5.586h-7.706v5.051h-5.165v-5.051h-7.706v5.051
				h-2.153h-6.281v8.291h6.281v27.328h-6.281v8.291h6.281h2.153v5.053h7.706v-5.053h5.165v5.053h7.706v-5.241
				c4.186-0.451,7.259-1.738,9.183-3.895c2.095-2.342,3.142-5.045,3.142-8.103C276.666,263.002,275.86,260.691,274.248,258.824z
				 M251.413,242.335h4.713c2.89,0,4.939,0.316,6.154,0.943c1.215,0.627,1.823,1.914,1.823,3.863c0,1.945-0.659,3.215-1.979,3.799
				c-1.32,0.586-3.34,0.881-6.061,0.881h-4.649V242.335z M264.448,268.623c-1.402,0.693-3.509,1.039-6.314,1.039h-6.722v-10.113
				h5.78c3.265,0,5.642,0.327,7.13,0.973c1.485,0.651,2.229,1.99,2.229,4.022C266.552,266.572,265.851,267.934,264.448,268.623z"/>
		</g>
	</g>
</g>
</svg>
